<svg width="96" height="96" viewBox="0 0 96 96" fill="none" xmlns="http://www.w3.org/2000/svg">
<rect width="96" height="96" rx="8" fill="#E1D3F8"/>
<path d="M61.3333 41.6666H59.9999C59.9999 36.5066 55.8266 32.3332 50.6666 32.3332H49.3333V30.6399C49.7387 30.4058 50.0754 30.069 50.3095 29.6635C50.5435 29.258 50.6667 28.798 50.6666 28.3298C50.6665 27.8616 50.5431 27.4017 50.3088 26.9963C50.0745 26.5909 49.7377 26.2543 49.3321 26.0204C48.9265 25.7865 48.4664 25.6635 47.9982 25.6638C47.53 25.6641 47.0701 25.7877 46.6648 26.0221C46.2595 26.2565 45.9231 26.5935 45.6893 26.9992C45.4556 27.4049 45.3328 27.865 45.3333 28.3332C45.3333 29.3199 45.8666 30.1866 46.6666 30.6399V32.3332H45.3333C40.1733 32.3332 35.9999 36.5066 35.9999 41.6666H34.6666C33.9333 41.6666 33.3333 42.2666 33.3333 42.9999V46.9999C33.3333 47.7332 33.9333 48.3332 34.6666 48.3332H35.9999V49.6666C35.9999 50.3738 36.2809 51.0521 36.781 51.5522C37.2811 52.0523 37.9593 52.3332 38.6666 52.3332H57.3333C58.8133 52.3332 59.9999 51.1466 59.9999 49.6666V48.3332H61.3333C62.0666 48.3332 62.6666 47.7332 62.6666 46.9999V42.9999C62.6666 42.2666 62.0666 41.6666 61.3333 41.6666ZM41.9999 46.9999C41.1159 46.9999 40.268 46.6487 39.6429 46.0236C39.0178 45.3985 38.6666 44.5506 38.6666 43.6666C38.6666 42.5732 39.1999 41.6132 39.9999 40.9999L45.1066 44.8399C44.6666 46.0932 43.4266 46.9999 41.9999 46.9999ZM53.9999 46.9999C52.5733 46.9999 51.3333 46.0932 50.8933 44.8399L55.9999 40.9999C56.7999 41.6132 57.3333 42.5732 57.3333 43.6666C57.3333 44.5506 56.9821 45.3985 56.3569 46.0236C55.7318 46.6487 54.884 46.9999 53.9999 46.9999Z" fill="#21105D"/>
<path d="M34.6 70.5333L30.8667 66.8C30.5333 67.0667 30.15 67.2778 29.7167 67.4333C29.2833 67.5889 28.8222 67.6667 28.3333 67.6667C27.1222 67.6667 26.0973 67.2473 25.2587 66.4087C24.4196 65.5696 24 64.5444 24 63.3333C24 62.1222 24.4196 61.0971 25.2587 60.258C26.0973 59.4193 27.1222 59 28.3333 59C29.5444 59 30.5696 59.4193 31.4087 60.258C32.2473 61.0971 32.6667 62.1222 32.6667 63.3333C32.6667 63.8222 32.5889 64.2833 32.4333 64.7167C32.2778 65.15 32.0667 65.5333 31.8 65.8667L35.55 69.6167C35.6722 69.7389 35.7333 69.8889 35.7333 70.0667C35.7333 70.2444 35.6667 70.4 35.5333 70.5333C35.4111 70.6556 35.2556 70.7167 35.0667 70.7167C34.8778 70.7167 34.7222 70.6556 34.6 70.5333ZM28.3333 66.3333C29.1667 66.3333 29.8751 66.0418 30.4587 65.4587C31.0418 64.8751 31.3333 64.1667 31.3333 63.3333C31.3333 62.5 31.0418 61.7916 30.4587 61.208C29.8751 60.6249 29.1667 60.3333 28.3333 60.3333C27.5 60.3333 26.7916 60.6249 26.208 61.208C25.6249 61.7916 25.3333 62.5 25.3333 63.3333C25.3333 64.1667 25.6249 64.8751 26.208 65.4587C26.7916 66.0418 27.5 66.3333 28.3333 66.3333Z" fill="#21105D"/>
<path d="M42.98 71H53.02C54.0467 71 54.6867 69.8866 54.1733 69L49.1533 60.3266C48.64 59.44 47.36 59.44 46.8467 60.3266L41.8267 69C41.3133 69.8866 41.9533 71 42.98 71ZM48 66.3333C47.6333 66.3333 47.3333 66.0333 47.3333 65.6666V64.3333C47.3333 63.9666 47.6333 63.6666 48 63.6666C48.3667 63.6666 48.6667 63.9666 48.6667 64.3333V65.6666C48.6667 66.0333 48.3667 66.3333 48 66.3333ZM48.6667 69H47.3333V67.6666H48.6667V69Z" fill="#21105D"/>
<path d="M65.5 58L60 60.4444V64.1111C60 67.5028 62.3467 70.6744 65.5 71.4444C68.6533 70.6744 71 67.5028 71 64.1111V60.4444L65.5 58ZM65.5 61.6667C66.3556 61.6667 67.2111 62.3389 67.2111 63.1944V64.1111C67.5778 64.1111 67.9444 64.4778 67.9444 64.9056V67.0444C67.9444 67.4111 67.5778 67.7778 67.15 67.7778H63.7889C63.4222 67.7778 63.0556 67.4111 63.0556 66.9833V64.8444C63.0556 64.4778 63.4222 64.1111 63.7889 64.1111V63.1944C63.7889 62.3389 64.6444 61.6667 65.5 61.6667ZM65.5 62.4C65.0111 62.4 64.5833 62.7056 64.5833 63.1944V64.1111H66.4167V63.1944C66.4167 62.7056 65.9889 62.4 65.5 62.4Z" fill="#21105D"/>
</svg>
